PathFileType	4	(X/Y/Z)	C:\Users\Basilio\Documents\Thesis Gigler\squatting_fais\c3dfiles\077\SLS_front_pre3\markers_experimental.trc
DataRate	CameraRate	NumFrames	NumMarkers	Units	OrigDataRate	OrigDataStartFrame	OrigNumFrames
200.000000	200.000000	4	60	mm	200.000000	183	1466
Frame#	Time	FHD			LBHD			RBHD			C7			T10			CLAV			LSHO			LUUPA			LMUPA			LDUPA			LLEP			LMEP			LRAD			LUL			LRFIN			RSHO			RUPA1			RMUPA			RDUPA			RLEP			RMEP			RUL			RUFIN			LASI			RASI			USACR			LSACR			RSACR			LTHI1			LTHI2			LTHI3			LTHI4			LLFC			LMFC			LTIB1			LTIB2			LTIB3			LTIB4			LLMAL			LHEE			LMT1			LMT2			LMT5			RTHI			RTHI2			RTHI3			RTHI4			RLFC			RMFC			RTIB1			RTIB2			RTIB3			RTIB4			RLMAL			RMMAL			RHEE			RMT1			RMT2			RMT5			RRAD			
		X1	Y1	Z1	X2	Y2	Z2	X3	Y3	Z3	X4	Y4	Z4	X5	Y5	Z5	X6	Y6	Z6	X7	Y7	Z7	X8	Y8	Z8	X9	Y9	Z9	X10	Y10	Z10	X11	Y11	Z11	X12	Y12	Z12	X13	Y13	Z13	X14	Y14	Z14	X15	Y15	Z15	X16	Y16	Z16	X17	Y17	Z17	X18	Y18	Z18	X19	Y19	Z19	X20	Y20	Z20	X21	Y21	Z21	X22	Y22	Z22	X23	Y23	Z23	X24	Y24	Z24	X25	Y25	Z25	X26	Y26	Z26	X27	Y27	Z27	X28	Y28	Z28	X29	Y29	Z29	X30	Y30	Z30	X31	Y31	Z31	X32	Y32	Z32	X33	Y33	Z33	X34	Y34	Z34	X35	Y35	Z35	X36	Y36	Z36	X37	Y37	Z37	X38	Y38	Z38	X39	Y39	Z39	X40	Y40	Z40	X41	Y41	Z41	X42	Y42	Z42	X43	Y43	Z43	X44	Y44	Z44	X45	Y45	Z45	X46	Y46	Z46	X47	Y47	Z47	X48	Y48	Z48	X49	Y49	Z49	X50	Y50	Z50	X51	Y51	Z51	X52	Y52	Z52	X53	Y53	Z53	X54	Y54	Z54	X55	Y55	Z55	X56	Y56	Z56	X57	Y57	Z57	X58	Y58	Z58	X59	Y59	Z59	X60	Y60	Z60	

184	0.915	-372.7671203613282	1840.807373046875	-1095.704833984375	-506.433563232422	1727.557006835938	-1170.279663085938	-515.7166137695314	1721.137084960938	-1024.23779296875	-542.2382202148439	1572.155395507813	-1105.230224609375	-500.793426513672	1236.731201171875	-1076.116088867188	-373.2783203125001	1547.3203125	-1096.736450195313	-397.6641845703126	1570.244140625	-1274.079467773438	-220.8675079345704	1508.64794921875	-1364.139282226563	-192.8676757812501	1543.956909179688	-1341.492065429688	-152.4105224609375	1506.990478515625	-1368.419067382813	-87.98756408691408	1517.837524414063	-1363.230224609375	-83.48804473876955	1450.84130859375	-1329.423583984375	201.6692810058594	1547.665893554688	-1237.482299804688	206.7286376953126	1555.362670898438	-1316.691528320313	296.8528747558594	1577.784790039063	-1243.064819335938	-395.2877807617189	1582.645629882813	-932.171813964844	-235.217514038086	1551.061157226563	-825.0642700195315	-209.525375366211	1576.402221679688	-859.1853027343752	-165.787826538086	1552.2734375	-824.4202270507815	-100.2405319213867	1559.53564453125	-834.2656250000002	-94.97998046875001	1484.8896484375	-858.2878417968752	193.5178222656251	1596.745971679688	-868.377380371094	276.8423767089844	1602.774780273438	-950.1758422851565	-268.7219543457032	1067.238891601563	-1183.817016601563	-300.7557678222657	1112.864624023438	-907.4699707031252	-488.8958740234376	1126.074584960938	-1063.2998046875	-488.0769042968751	1094.9892578125	-1089.722290039063	-495.3297424316407	1093.739135742188	-1035.202514648438	-337.5521240234376	845.157409667969	-1214.855224609375	-308.8739929199219	766.7933349609376	-1208.555419921875	-260.1854858398438	769.2693481445315	-1210.638061523438	-334.8151550292969	716.3165283203126	-1185.919189453125	-305.3895263671876	569.8160400390626	-1155.280883789063	-274.7996215820313	557.9868774414064	-1023.960327148438	-273.5457153320313	349.3208007812501	-1069.20849609375	-314.1603088378907	301.4698791503907	-1132.22216796875	-279.7294311523438	299.7418518066407	-1101.103393554688	-287.3394470214844	225.0592346191407	-1061.129638671875	-355.1876525878907	104.436393737793	-1089.235473632813	-406.1182250976564	78.16387939453126	-1028.909057617188	-195.0864715576172	59.74466705322267	-1015.506713867188	-191.0362091064453	56.54855346679689	-1057.621704101563	-319.2550964355469	126.0785598754883	-1009.177551269531	-133.6849822998047	862.395202636719	-818.6691894531252	-67.07319641113283	859.1548461914065	-819.230895996094	-47.35719299316407	885.6553955078127	-826.174255371094	-23.9903736114502	788.1572265625002	-825.5745239257815	23.40117835998536	742.3767089843751	-821.9820556640627	56.30318069458009	743.7384033203126	-948.4841918945315	149.1130065917969	666.5272216796876	-830.3572998046877	146.7380065917969	566.9605102539064	-791.2276611328127	183.3100891113282	589.0633544921876	-811.893737792969	214.9736938476563	555.0933227539064	-848.8611450195315	274.5213317871094	374.4940795898438	-794.2551269531252	291.2560119628907	393.3298950195314	-882.5552978515627	256.3220214843751	297.8769836425782	-849.2717285156252	431.1972045898439	443.0204162597657	-838.5189208984377	425.8448181152345	442.9122619628907	-800.1173095703127	423.9043273925782	415.1701660156251	-752.9179687500001	182.1887817382813	1581.389404296875	-948.1676025390627	
185	0.92	-372.5427856445313	1840.759643554688	-1095.527709960938	-506.3058166503907	1727.6494140625	-1170.24462890625	-515.5326538085939	1721.263671875	-1024.27294921875	-542.0825805664064	1572.195434570313	-1105.24560546875	-500.6726989746095	1236.814697265625	-1076.20458984375	-373.1726989746094	1547.36572265625	-1096.7607421875	-397.5209045410157	1570.354858398438	-1274.132568359375	-220.4894104003907	1508.561889648438	-1364.040161132813	-192.6358795166016	1544.102783203125	-1341.562866210938	-152.1321868896485	1507.008666992188	-1368.299072265625	-87.68017578125001	1517.923217773438	-1363.157958984375	-83.26616668701173	1450.941772460938	-1329.375732421875	201.8553924560547	1547.745483398438	-1237.493896484375	206.7457122802735	1555.44873046875	-1316.71044921875	297.2390136718751	1577.875122070313	-1243.064819335938	-395.1099853515626	1582.6669921875	-932.193542480469	-235.0322418212891	1550.96826171875	-825.0334472656252	-209.3493804931641	1576.095825195313	-859.2797851562502	-165.6514739990235	1552.075805664063	-824.4694824218752	-100.0733108520508	1559.37060546875	-834.192321777344	-94.80847930908205	1484.743408203125	-858.2401123046877	194.014877319336	1596.486694335938	-867.9321899414065	277.2770690917969	1602.081420898438	-950.2691040039065	-268.7042541503907	1067.286743164063	-1183.814086914063	-300.6871032714844	1112.942504882813	-907.5106201171877	-488.9053344726564	1126.073364257813	-1063.18408203125	-487.9458618164064	1095.118774414063	-1089.614135742188	-495.3538818359376	1093.875244140625	-1035.198608398438	-337.6372070312501	845.1358032226565	-1214.787353515625	-308.9544372558594	766.7833862304689	-1208.597045898438	-260.2257690429688	769.2061767578127	-1210.651123046875	-334.7782897949219	716.2490234375001	-1185.898071289063	-305.4568481445313	569.9047241210939	-1155.309326171875	-274.6749267578126	558.0336303710939	-1024.05859375	-273.3970336914063	349.1876220703126	-1069.482055664063	-314.2884826660157	301.5156860351563	-1132.346435546875	-279.7563781738282	299.7699279785157	-1101.340576171875	-287.3282165527344	225.1468048095704	-1061.2802734375	-355.3253479003907	104.5142135620117	-1089.289306640625	-406.0573730468751	78.24497222900392	-1028.944702148438	-195.238998413086	59.65368652343751	-1015.553894042969	-191.0740661621094	56.59899139404298	-1057.65966796875	-319.2577514648438	126.1264190673828	-1009.2783203125	-133.5652770996094	862.5826416015627	-818.595153808594	-66.97088623046876	859.342468261719	-819.2373657226565	-47.32992935180665	885.6737060546877	-825.9982910156252	-23.81739616394043	788.3562622070315	-825.5394287109377	23.56763076782227	742.6296386718751	-821.9398193359377	56.5262908935547	743.9786376953126	-948.3530883789065	149.1826477050782	666.6143188476564	-830.3435058593752	146.8054809570313	567.2624511718751	-791.1865844726565	183.2950897216797	589.1594848632814	-811.8455810546877	214.9013214111329	555.1013183593751	-848.8294067382815	274.2387695312501	374.3794860839844	-794.2249755859377	291.0187072753907	393.3255004882814	-882.5687255859377	256.0069885253907	297.8155212402344	-849.2537841796877	431.0970153808595	442.9339904785157	-838.607604980469	425.7091674804689	442.5596923828126	-800.1175537109377	423.7249450683595	414.929901123047	-752.9341430664064	182.1771392822266	1580.884643554688	-948.1526489257815	
186	0.925	-372.3879394531251	1840.726806640625	-1095.370849609375	-506.0294189453126	1727.708129882813	-1170.251953125	-515.4388427734376	1721.333129882813	-1024.246704101563	-541.8704223632814	1572.331787109375	-1105.307495117188	-500.6715393066407	1236.892456054688	-1076.303833007813	-373.0527038574219	1547.354858398438	-1096.818603515625	-397.4371643066407	1570.480590820313	-1274.1748046875	-220.4148712158204	1508.64013671875	-1364.021606445313	-192.4127960205079	1544.234619140625	-1341.58056640625	-151.9928283691407	1507.186889648438	-1368.385864257813	-87.3036346435547	1517.931274414063	-1363.111328125	-83.11241912841798	1451.05712890625	-1329.376708984375	202.0560913085938	1547.861206054688	-1237.521728515625	207.0195007324219	1555.494140625	-1316.68603515625	297.3534545898438	1578.0498046875	-1243.153930664063	-394.9075927734376	1582.638793945313	-932.2512817382815	-234.9345855712891	1550.921508789063	-825.0974121093752	-209.2474975585938	1575.956176757813	-859.4453125000002	-165.545639038086	1551.978393554688	-824.4489746093752	-99.94914245605472	1559.2509765625	-834.2615966796877	-94.71056365966798	1484.487060546875	-858.1715087890627	194.1593170166016	1596.01953125	-867.8062744140627	277.5874328613282	1601.5029296875	-950.4079589843752	-268.7335205078126	1067.28759765625	-1183.860595703125	-300.5392150878907	1113.032958984375	-907.547302246094	-488.8528747558595	1126.142578125	-1063.144165039063	-487.9345092773439	1095.176147460938	-1089.540283203125	-495.2976074218751	1093.970458984375	-1035.007080078125	-337.7156372070313	845.2153320312502	-1214.70166015625	-309.0136413574219	766.8142089843751	-1208.616943359375	-261.2310791015626	769.5871582031252	-1210.958740234375	-334.9251708984376	716.3274536132814	-1185.89013671875	-305.5984497070313	569.8610229492189	-1155.40380859375	-274.5940856933594	558.0942993164064	-1024.0634765625	-273.3144836425782	349.1168518066407	-1069.564331054688	-314.1071777343751	301.6118774414063	-1132.5390625	-279.7832641601563	299.7562255859376	-1101.431640625	-286.9110107421876	224.8255920410157	-1061.13037109375	-355.4596557617188	104.5461959838867	-1089.362426757813	-406.0735473632814	78.32803344726564	-1028.94287109375	-195.1049041748047	59.76049041748048	-1015.59521484375	-191.103515625	56.66708374023439	-1057.763305664063	-319.2102050781251	126.1872863769532	-1009.354064941406	-133.4576110839844	862.7426757812502	-818.4800415039065	-66.90761566162111	859.5297851562502	-819.2613525390627	-47.22177886962891	885.594909667969	-826.107849121094	-23.64583396911621	788.5802001953127	-825.4241943359377	23.67751502990723	742.7694702148439	-821.8978271484377	56.56096267700197	744.2573242187501	-948.3613281250002	149.3639373779297	666.7420043945314	-830.2990722656252	146.8133544921875	567.4244384765626	-791.0616455078127	183.2962493896485	589.2454223632814	-811.8442993164065	214.8020629882813	555.1229248046876	-848.7959594726565	274.0028991699219	374.3249816894532	-794.153259277344	291.2331848144532	393.2335510253907	-882.335632324219	255.6687927246094	297.6878967285157	-849.309509277344	430.8659667968751	442.6744384765626	-838.7442016601565	425.6240234375001	442.540985107422	-800.2246093750002	423.5904541015626	414.6895446777345	-753.0364379882814	180.6444854736328	1578.487060546875	-944.2366943359377	
187	0.93	-372.3700561523438	1840.927001953125	-1095.260375976563	-505.8020629882814	1727.777465820313	-1170.26220703125	-515.3223876953126	1721.359741210938	-1024.235107421875	-541.6752319335939	1572.428588867188	-1105.391845703125	-500.5086669921876	1237.011108398438	-1076.430541992188	-372.9616088867188	1547.33642578125	-1096.880737304688	-397.2280273437501	1570.551025390625	-1274.192504882813	-220.0550842285157	1508.636352539063	-1364.004150390625	-192.2020721435547	1544.326293945313	-1341.6259765625	-151.8390502929688	1507.219970703125	-1368.392578125	-87.15155029296876	1518.039428710938	-1363.137451171875	-83.01110076904298	1451.17236328125	-1329.353515625	202.2663726806641	1547.983032226563	-1237.54150390625	207.2920379638672	1555.657836914063	-1316.706909179688	297.7742614746094	1578.21337890625	-1243.046264648438	-394.783172607422	1582.628295898438	-932.3319091796877	-234.8259277343751	1550.793823242188	-825.154968261719	-209.1511840820313	1575.778564453125	-859.487976074219	-165.4505004882813	1551.824096679688	-824.4004516601565	-99.82920837402347	1559.072875976563	-834.2189941406252	-94.66981506347658	1484.126098632813	-858.0904541015627	194.3784179687501	1595.358276367188	-867.6987304687502	277.8770751953126	1600.774658203125	-950.3601684570315	-268.7446594238282	1067.39404296875	-1183.87646484375	-300.4444274902344	1113.190307617188	-907.5879516601565	-488.7732238769532	1126.289916992188	-1063.0849609375	-487.8368530273439	1095.407592773438	-1089.476318359375	-495.133514404297	1094.192260742188	-1034.95703125	-337.6814575195313	845.178161621094	-1214.674682617188	-309.0013732910157	766.8227539062501	-1208.608520507813	-260.2912292480469	769.282165527344	-1210.712158203125	-335.0068054199219	716.3602294921876	-1185.882202148438	-305.5278930664063	569.8449096679689	-1155.364135742188	-274.6104736328126	558.0712890625001	-1024.069458007813	-273.1888427734376	349.1680297851563	-1069.566284179688	-314.2571105957032	301.5133361816407	-1132.43798828125	-279.7449645996094	299.6920776367188	-1101.485595703125	-287.3056640625001	225.1313781738282	-1061.440063476563	-355.6816101074219	104.5705795288086	-1089.3134765625	-406.064666748047	78.32749176025392	-1028.948974609375	-195.1233825683594	59.8483009338379	-1015.630981445313	-191.0855712890625	56.63633728027345	-1057.7109375	-319.1467895507813	126.2126007080078	-1009.448120117188	-133.2710418701172	862.9616699218752	-818.4046630859377	-66.79852294921876	859.6582641601565	-819.2061767578127	-47.05940246582032	885.8638305664065	-825.8013305664065	-23.49702453613282	788.7622070312502	-825.4644775390627	23.86398315429688	743.0862426757814	-821.8182373046877	56.86316299438478	744.4907836914064	-948.308288574219	149.4125518798828	666.9561767578126	-830.2631835937502	146.861312866211	567.6081542968751	-791.1265869140627	183.366455078125	589.4380493164064	-811.811950683594	214.8045654296876	555.1917114257814	-848.7650146484377	273.8413391113282	374.3209838867188	-794.1684570312502	291.1957397460938	393.1376953125001	-882.6439208984377	255.2321166992188	297.7070617675782	-849.0125732421877	430.6014099121095	442.2824707031251	-838.8684082031252	425.4944763183595	442.3716125488282	-800.3076782226565	423.4583435058595	414.5722045898439	-753.1572265625001	180.8530731201172	1577.873901367188	-944.147399902344	
